<?xml version="1.0" standalone="no"?>
<!DOCTYPE svg PUBLIC "-//W3C//DTD SVG 20010904//EN"
 "http://www.w3.org/TR/2001/REC-SVG-20010904/DTD/svg10.dtd">
<svg version="1.0" xmlns="http://www.w3.org/2000/svg"
 width="1024.000000pt" height="768.000000pt" viewBox="0 0 1024.000000 768.000000"
 preserveAspectRatio="xMidYMid meet">

<g transform="translate(0.000000,768.000000) scale(0.100000,-0.100000)"
fill="#000000" stroke="none">
<path d="M1895 7090 c-3 -5 1 -10 9 -10 9 0 16 5 16 10 0 6 -4 10 -9 10 -6 0
-13 -4 -16 -10z"/>
<path d="M1978 7073 c7 -3 16 -2 19 1 4 3 -2 6 -13 5 -11 0 -14 -3 -6 -6z"/>
<path d="M2295 7052 c2 -2 22 -8 43 -12 27 -5 39 -3 39 5 0 7 -17 12 -44 12
-23 0 -41 -2 -38 -5z"/>
<path d="M2635 7019 c79 -15 80 -15 85 -4 3 6 -22 11 -65 12 l-70 1 50 -9z"/>
<path d="M2965 6990 c3 -5 17 -10 31 -10 14 0 34 -5 44 -10 16 -8 19 -7 17 10
-1 17 -8 20 -50 20 -29 0 -46 -4 -42 -10z"/>
<path d="M3285 6959 c11 -4 30 -8 42 -8 12 -1 29 -8 37 -17 14 -14 17 -14 22
0 10 27 -6 36 -64 35 -39 -1 -51 -4 -37 -10z"/>
<path d="M3625 6925 c27 -8 51 -19 53 -25 3 -8 8 -8 17 0 29 24 5 40 -59 39
l-61 -1 50 -13z"/>
<path d="M1497 6911 c-11 -44 193 -1386 215 -1406 3 -3 800 -13 2718 -35 470
-6 1136 -14 1480 -20 1035 -16 2150 -24 2150 -15 0 5 -20 78 -44 164 -63 222
-99 374 -141 594 -20 106 -39 199 -43 207 -3 9 -9 -4 -15 -30 -10 -48 -46
-134 -47 -112 0 7 7 29 15 49 18 44 19 98 0 138 -10 22 -13 24 -13 10 3 -61
-4 -123 -14 -138 -11 -15 -12 -7 -10 45 2 45 -1 69 -12 83 -14 19 -15 19 -16
2 0 -16 -7 -18 -47 -16 l-48 3 -3 -34 c-3 -39 -32 -134 -38 -127 -3 2 2 31 11
63 20 77 3 166 -37 190 -7 5 -5 -4 5 -19 14 -22 16 -39 11 -95 -4 -37 -13 -83
-21 -102 -7 -19 -11 -24 -8 -10 20 88 18 127 -9 171 l-26 44 7 -34 6 -34 -42
7 c-38 6 -42 4 -51 -20 -6 -14 -10 -37 -10 -51 0 -32 -21 -93 -32 -93 -4 0 -1
19 7 41 8 23 15 59 15 79 0 40 -36 137 -47 127 -3 -4 0 -13 6 -21 12 -15 6
-143 -10 -196 -4 -14 -4 7 -2 47 5 60 2 78 -17 117 -25 53 -32 59 -20 16 10
-33 10 -33 -44 -30 -45 2 -55 -10 -56 -60 -1 -19 -10 -55 -20 -80 -23 -55 -26
-30 -4 31 9 26 13 58 10 79 -10 59 -26 110 -36 110 -6 0 -6 -9 -1 -24 12 -30
2 -143 -16 -181 -12 -25 -13 -26 -8 -5 18 79 17 107 -3 146 -17 32 -21 35 -22
17 0 -21 -5 -23 -55 -23 l-55 0 0 -37 c0 -47 -17 -110 -32 -119 -8 -5 -9 0 -4
17 27 88 29 113 11 164 -10 27 -22 55 -28 60 -7 7 -7 3 -2 -10 13 -29 6 -164
-10 -200 -12 -27 -12 -23 -8 45 4 55 1 85 -11 113 -19 43 -29 49 -20 11 7 -25
6 -26 -47 -23 l-54 3 -8 -44 c-13 -73 -29 -126 -34 -112 -3 7 0 27 6 44 21 59
5 160 -29 191 -12 10 -12 9 -1 -5 14 -19 9 -112 -11 -201 -15 -70 -22 -50 -7
23 9 46 9 70 0 99 -12 42 -44 80 -34 42 5 -19 1 -21 -51 -21 l-56 0 0 -34 c0
-34 -30 -140 -37 -132 -2 2 1 31 8 64 10 48 10 71 0 116 -7 31 -15 58 -19 60
-4 2 -8 -33 -10 -78 -1 -44 -9 -101 -16 -126 -14 -45 -14 -44 -9 41 5 67 2 91
-10 115 -16 28 -16 28 -17 5 0 -23 -2 -23 -60 -17 l-60 7 -1 -43 c0 -24 -9
-65 -20 -93 -16 -43 -18 -45 -14 -15 15 103 16 133 5 179 -7 28 -15 51 -18 51
-4 0 -8 -37 -10 -83 -1 -46 -8 -103 -16 -127 -14 -45 -14 -44 -9 40 4 66 1 92
-11 115 -10 20 -16 24 -16 13 0 -15 -10 -18 -60 -18 -66 0 -63 3 -73 -85 -5
-43 -25 -101 -32 -93 -3 2 0 20 5 39 16 52 14 140 -3 179 l-16 35 6 -31 c3
-18 0 -35 -6 -38 -6 -4 -11 -33 -12 -64 -1 -31 -5 -68 -9 -82 -5 -15 -6 1 -3
42 4 44 1 78 -7 98 -12 29 -30 41 -30 19 0 -7 -22 -10 -62 -8 l-63 4 -7 -55
c-7 -57 -25 -116 -33 -108 -3 2 0 20 5 39 6 18 10 53 10 77 0 47 -20 122 -33
122 -5 0 -5 -4 -2 -10 11 -17 -13 -198 -30 -227 -9 -15 -13 -19 -10 -8 4 11 9
52 12 91 4 53 2 77 -10 100 -9 17 -16 22 -17 13 0 -13 -12 -15 -67 -15 l-68 1
-6 -55 c-4 -30 -14 -71 -23 -90 -12 -23 -15 -27 -11 -10 14 60 17 141 5 189
-14 60 -24 65 -27 14 -3 -67 -21 -204 -27 -210 -3 -4 -3 28 0 70 7 79 -9 154
-27 125 -6 -9 -31 -13 -76 -13 l-68 0 -6 -65 c-3 -36 -11 -74 -18 -85 -11 -18
-12 -16 -6 15 3 19 9 50 12 68 5 31 -7 89 -28 137 -6 14 -7 7 -3 -22 3 -25 2
-43 -4 -43 -5 0 -12 -31 -14 -68 -3 -38 -10 -77 -16 -88 -8 -14 -9 2 -5 63 4
57 2 92 -7 114 -11 27 -15 29 -20 14 -6 -16 -17 -18 -77 -16 -79 3 -82 -1 -83
-84 -1 -22 -7 -53 -16 -70 -12 -26 -13 -26 -8 -5 12 53 16 167 6 174 -26 16
-42 -6 -42 -59 0 -63 -9 -115 -21 -115 -4 0 -3 15 2 32 13 47 11 77 -8 139
-12 40 -18 48 -21 32 -3 -22 -8 -23 -81 -23 l-78 0 -6 -67 c-9 -111 -26 -134
-20 -28 3 50 1 106 -5 125 -10 33 -10 33 -11 8 -1 -17 -7 -28 -15 -28 -10 0
-15 -22 -18 -85 -3 -53 -9 -90 -18 -98 -10 -10 -12 -8 -6 8 18 49 18 140 1
180 -15 36 -18 38 -25 19 -8 -19 -13 -20 -75 -13 -37 5 -71 6 -75 4 -4 -3 -10
-36 -14 -74 -4 -37 -13 -77 -21 -87 -12 -17 -13 -14 -5 21 11 45 13 120 4 152
-6 21 -6 21 -25 2 -14 -14 -19 -34 -20 -71 0 -29 -7 -71 -14 -93 -13 -38 -13
-36 -8 45 5 88 -9 159 -27 131 -6 -11 -26 -12 -88 -7 l-80 7 -7 -67 c-4 -36
-13 -83 -21 -103 l-14 -36 5 40 c3 22 9 57 12 77 3 20 3 52 -1 71 -6 33 -8 34
-31 23 -23 -10 -25 -17 -26 -81 -1 -38 -5 -81 -9 -95 -5 -14 -6 11 -3 60 5 71
2 92 -13 120 -14 27 -19 31 -22 17 -2 -12 -10 -16 -27 -13 -43 8 -131 10 -142
3 -6 -4 -13 -41 -15 -82 -3 -42 -11 -81 -17 -88 -10 -9 -11 -3 -4 28 9 45 11
150 3 159 -3 3 -16 3 -28 -1 -19 -5 -22 -12 -22 -57 -1 -28 -7 -76 -14 -106
-13 -55 -13 -54 -8 46 4 84 2 106 -12 125 -9 13 -16 17 -16 10 0 -11 -18 -13
-94 -7 l-93 6 -7 -72 c-10 -109 -27 -153 -19 -51 6 95 -3 168 -18 140 -6 -9
-17 -17 -24 -17 -12 0 -15 -15 -15 -67 0 -64 -16 -150 -26 -140 -3 2 -1 29 4
58 4 30 6 79 3 109 -6 50 -8 55 -31 56 -140 7 -180 7 -187 1 -4 -5 -10 -44
-14 -88 -7 -74 -13 -99 -23 -88 -2 2 1 31 7 64 5 33 7 77 3 97 -6 34 -9 36
-34 29 -26 -7 -27 -10 -29 -82 -1 -41 -6 -90 -12 -109 -8 -28 -9 -16 -5 55 2
50 1 102 -3 118 l-8 27 -110 3 -110 2 -6 -81 c-3 -44 -11 -89 -18 -100 -10
-16 -11 -10 -5 31 8 49 10 163 3 170 -2 2 -16 1 -31 -2 -28 -5 -28 -7 -29 -82
-2 -123 -16 -152 -18 -36 -1 55 -5 106 -9 113 -5 8 -46 14 -120 17 -129 5
-117 16 -126 -114 -3 -40 -8 -76 -11 -79 -13 -13 -14 8 -4 66 15 84 6 128 -26
135 -32 6 -40 -7 -36 -56 3 -46 -8 -137 -17 -137 -4 0 -6 38 -4 85 2 46 -1 92
-6 101 -9 16 -54 22 -217 28 l-30 1 -8 -98 c-11 -148 -26 -155 -24 -12 l2 120
-30 0 -30 0 -5 -112 c-3 -62 -9 -115 -12 -119 -4 -3 -7 44 -6 105 1 67 -3 116
-10 123 -10 10 -39 14 -172 20 l-75 3 -6 -75 c-10 -118 -19 -164 -32 -151 -7
7 -7 25 1 62 13 55 16 128 6 153 -4 10 -18 16 -39 16 l-32 0 0 -97 c-1 -54 -6
-109 -11 -123 -8 -20 -11 0 -12 90 0 63 -4 120 -8 127 -4 6 -41 14 -82 18 -41
3 -98 8 -126 11 -45 4 -52 3 -57 -15z m409 -338 c23 -97 21 -103 -28 -102 -58
1 -141 16 -108 19 14 1 47 2 73 1 l49 -3 -7 79 c-8 89 1 91 21 6z m-76 3 c0
-19 -37 -63 -45 -54 -7 6 31 68 41 68 2 0 4 -6 4 -14z m449 -50 c7 -31 10 -60
6 -66 -8 -13 -142 -13 -150 0 -4 6 19 10 60 10 l67 0 -7 61 c-9 76 7 72 24 -5z
m-89 7 c-11 -17 -11 -17 -6 0 3 10 6 24 7 30 0 9 2 9 5 0 3 -7 0 -20 -6 -30z
m450 -85 c0 -16 -9 -18 -72 -16 l-73 2 62 3 63 4 -5 62 -5 62 15 -50 c8 -27
15 -58 15 -67z m339 0 c1 -22 -5 -29 -24 -34 -14 -4 -29 -3 -33 0 -3 4 4 9 16
13 18 4 22 13 23 47 0 32 2 37 9 21 5 -11 9 -32 9 -47z m318 5 c-3 -10 -5 -4
-5 12 0 17 2 24 5 18 2 -7 2 -21 0 -30z m-27 -38 c0 -7 8 -16 18 -18 9 -3 -12
-4 -48 -4 -36 0 -50 2 -31 4 22 3 35 11 38 24 6 20 23 16 23 -6z m320 -21 c0
-7 6 -15 13 -17 6 -3 -3 -6 -22 -6 -30 -1 -33 1 -27 22 3 12 6 29 6 37 1 11 4
10 15 -4 8 -11 15 -25 15 -32z m300 -6 c0 -9 8 -22 18 -27 13 -8 4 -10 -38
-10 -30 1 -47 3 -38 6 10 2 21 17 24 31 4 15 9 31 12 36 6 11 22 -14 22 -36z
m1102 10 c-7 -7 -12 -8 -12 -2 0 14 12 26 19 19 2 -3 -1 -11 -7 -17z m-798
-60 c-7 -10 -25 -10 -42 0 -10 7 -10 15 -2 37 l11 29 19 -29 c10 -16 17 -32
14 -37z m2036 48 c0 -8 -4 -18 -10 -21 -5 -3 -10 3 -10 14 0 12 5 21 10 21 6
0 10 -6 10 -14z m230 -10 c0 -2 -3 -11 -6 -20 -9 -23 -24 -20 -24 4 0 11 7 20
15 20 8 0 15 -2 15 -4z m-1994 -23 c19 -26 17 -33 -11 -33 -20 0 -25 5 -25 25
0 29 17 33 36 8z m2208 -16 c-8 -22 -20 -22 -28 0 -7 18 14 37 27 24 4 -4 5
-15 1 -24z m-1922 -12 l30 -25 -41 0 c-33 0 -41 4 -41 18 0 18 8 32 18 32 2 0
17 -11 34 -25z m2141 19 c9 -10 -4 -34 -19 -34 -8 0 -14 9 -14 20 0 19 19 27
33 14z m205 -26 c-2 -13 -7 -23 -13 -23 -5 0 -11 10 -13 23 -2 15 2 22 13 22
11 0 15 -7 13 -22z m-2070 -26 c4 -14 -37 -16 -57 -3 -12 8 -13 12 -1 26 11
13 16 14 33 2 12 -8 23 -19 25 -25z m2278 17 c3 -6 -1 -18 -10 -27 -15 -15
-16 -14 -16 11 0 27 13 36 26 16z m-2036 -19 l25 -20 -32 0 c-26 0 -33 4 -33
20 0 25 8 25 40 0z m2230 0 c0 -11 -4 -20 -9 -20 -11 0 -22 26 -14 34 12 12
23 5 23 -14z m197 -23 c-6 -19 -22 -6 -25 20 -2 27 -2 27 13 8 8 -10 14 -23
12 -28z m-2177 9 c6 -8 21 -17 33 -19 12 -3 4 -4 -18 -4 -29 2 -41 7 -43 20
-4 21 11 22 28 3z m250 -27 c0 -5 -7 -9 -15 -9 -8 0 -15 7 -15 15 0 9 6 12 15
9 8 -4 15 -10 15 -15z m234 -14 c3 -8 1 -15 -3 -15 -5 0 -11 7 -15 15 -3 8 -1
15 3 15 5 0 11 -7 15 -15z m-1749 -60 c76 -20 91 -34 78 -72 -8 -22 -15 -27
-34 -25 -13 1 -47 5 -76 8 -47 6 -54 4 -77 -21 -47 -50 -47 -157 -1 -251 53
-109 165 -146 233 -77 12 12 18 9 38 -19 29 -39 28 -54 -9 -81 -34 -26 -143
-28 -198 -5 -172 74 -260 368 -150 498 24 29 85 59 121 60 9 0 43 -7 75 -15z
m3469 -21 c9 -24 7 -34 -8 -34 -13 0 -26 20 -26 41 0 15 27 10 34 -7z m-2864
4 c0 -9 45 -232 65 -328 24 -112 49 -180 67 -180 4 0 8 -7 8 -15 0 -21 -35
-37 -66 -29 -44 11 -55 45 -124 389 -31 152 -29 165 21 165 16 0 29 -1 29 -2z
m1074 -56 c3 -5 21 -80 40 -168 19 -87 44 -195 55 -239 28 -108 28 -107 -16
-104 -21 1 -55 -1 -75 -6 -98 -19 -198 81 -214 217 -12 102 37 165 121 156 24
-3 46 -4 49 -1 2 2 -2 28 -10 56 -18 69 -18 76 9 87 29 11 35 12 41 2z m-1293
-105 c56 -30 83 -78 110 -194 11 -48 29 -106 40 -128 10 -22 19 -46 19 -52 0
-18 -51 -16 -78 3 -20 14 -24 14 -44 0 -12 -9 -41 -16 -63 -16 -60 0 -106 28
-132 80 -53 103 -10 178 106 186 48 3 54 14 25 44 -10 10 -34 15 -79 14 -62
-1 -64 0 -76 29 -11 26 -10 31 6 43 30 22 115 17 166 -9z m596 -44 c43 -34 81
-100 90 -156 l6 -37 -116 0 -117 0 12 -25 c24 -53 98 -78 153 -53 22 10 27 9
40 -8 20 -27 18 -51 -4 -64 -33 -17 -128 -12 -170 10 -105 53 -163 214 -112
310 25 48 55 62 123 57 46 -3 65 -9 95 -34z m171 12 c7 -14 12 -14 41 1 95 47
192 -39 221 -193 6 -34 17 -84 26 -112 8 -28 12 -56 9 -61 -7 -12 -45 -13 -61
-2 -6 4 -23 59 -38 122 -16 63 -34 127 -42 142 -22 42 -85 52 -107 17 -8 -12
-3 -47 16 -127 36 -147 36 -152 -7 -152 l-34 0 -36 153 c-54 230 -53 227 -23
227 14 0 30 -7 35 -15z m810 -41 c35 -25 77 -112 92 -187 6 -33 21 -79 33
-103 17 -35 18 -47 9 -56 -10 -10 -19 -9 -42 4 -26 15 -34 15 -61 4 -94 -40
-207 79 -170 177 12 31 62 57 110 57 23 0 29 4 24 15 -9 26 -62 47 -99 41 -29
-6 -35 -3 -49 23 -14 28 -14 31 3 41 26 16 119 6 150 -16z m303 -6 c4 -6 3
-22 0 -37 -6 -22 -12 -26 -39 -23 -49 5 -55 -25 -30 -134 35 -155 35 -146 -3
-142 -32 3 -33 5 -51 73 -26 99 -58 246 -58 263 0 12 10 13 43 9 23 -3 49 -2
57 3 17 11 72 3 81 -12z"/>
<path d="M5835 5878 c-27 -15 -35 -28 -35 -58 0 -85 53 -160 114 -160 19 0 37
4 40 9 9 13 -33 188 -47 199 -22 17 -52 21 -72 10z"/>
<path d="M4576 5784 c-17 -16 -21 -51 -8 -70 13 -20 54 -36 77 -30 29 7 39 36
30 82 -5 32 -8 34 -45 34 -22 0 -45 -7 -54 -16z"/>
<path d="M5096 5888 c-26 -37 -20 -48 28 -48 24 0 58 -3 75 -6 27 -6 31 -4 31
14 0 53 -104 84 -134 40z"/>
<path d="M6156 5731 c-16 -17 -16 -23 -4 -48 10 -22 21 -29 50 -31 32 -3 38 0
43 20 3 13 1 36 -4 51 -13 33 -59 37 -85 8z"/>
<path d="M3920 6898 c19 -5 43 -14 53 -19 21 -11 37 -4 37 17 0 11 -14 14 -62
13 -59 -1 -61 -2 -28 -11z"/>
<path d="M4200 6880 c0 -4 16 -11 35 -14 19 -4 35 -11 35 -16 0 -5 7 -7 15 -4
15 6 21 34 8 35 -5 0 -27 2 -50 4 -24 2 -43 0 -43 -5z"/>
<path d="M4518 6840 c44 -20 72 -18 72 6 0 10 -15 14 -57 13 l-58 0 43 -19z"/>
<path d="M4794 6815 c34 -18 67 -16 74 3 2 8 -11 12 -50 12 l-53 0 29 -15z"/>
<path d="M3901 6794 c0 -11 3 -14 6 -6 3 7 2 16 -1 19 -3 4 -6 -2 -5 -13z"/>
<path d="M5061 6791 c24 -19 69 -16 77 7 2 8 -12 12 -48 12 l-52 0 23 -19z"/>
<path d="M5343 6781 c-15 -4 -20 -10 -14 -19 8 -13 56 -8 66 8 7 11 -26 17
-52 11z"/>
<path d="M4201 6764 c0 -11 3 -14 6 -6 3 7 2 16 -1 19 -3 4 -6 -2 -5 -13z"/>
<path d="M4492 6750 c0 -14 2 -19 5 -12 2 6 2 18 0 25 -3 6 -5 1 -5 -13z"/>
<path d="M5569 6751 c17 -17 29 -21 52 -16 40 9 37 25 -5 25 -19 0 -42 3 -52
7 -13 5 -12 1 5 -16z"/>
<path d="M5840 6725 c-10 -12 -10 -15 3 -15 23 0 47 11 47 21 0 15 -37 10 -50
-6z"/>
<path d="M6080 6710 c-8 -5 -11 -12 -8 -15 10 -10 69 5 62 16 -7 12 -35 11
-54 -1z"/>
<path d="M6280 6703 c0 -2 6 -11 14 -19 17 -16 44 -18 65 -5 15 10 10 12 -61
26 -10 2 -18 1 -18 -2z"/>
<path d="M5945 6690 c3 -5 8 -10 11 -10 2 0 4 5 4 10 0 6 -5 10 -11 10 -5 0
-7 -4 -4 -10z"/>
<path d="M6160 6685 c0 -2 10 -10 23 -16 20 -11 21 -11 8 4 -13 16 -31 23 -31
12z"/>
<path d="M6523 6668 c2 -8 17 -12 36 -10 17 1 44 -6 58 -15 15 -10 24 -13 20
-7 -18 30 -124 59 -114 32z"/>
<path d="M6395 6660 c3 -5 11 -10 16 -10 6 0 7 5 4 10 -3 6 -11 10 -16 10 -6
0 -7 -4 -4 -10z"/>
<path d="M6740 6651 c0 -16 18 -22 45 -15 20 5 23 9 13 15 -18 12 -58 11 -58
0z"/>
<path d="M6820 6630 c0 -6 7 -10 15 -10 8 0 15 2 15 4 0 2 -7 6 -15 10 -8 3
-15 1 -15 -4z"/>
<path d="M6960 6631 c0 -6 15 -11 33 -11 18 0 38 -4 45 -10 8 -6 7 -4 -1 5
-16 19 -77 32 -77 16z"/>
<path d="M7170 6610 c0 -5 15 -10 33 -10 24 0 28 3 17 10 -20 13 -50 13 -50 0z"/>
<path d="M7375 6590 c3 -5 15 -10 26 -10 11 0 17 5 14 10 -3 6 -15 10 -26 10
-11 0 -17 -4 -14 -10z"/>
<path d="M7578 6573 c6 -2 18 -2 25 0 6 3 1 5 -13 5 -14 0 -19 -2 -12 -5z"/>
<path d="M7750 6501 c0 -5 5 -13 10 -16 6 -3 10 -2 10 4 0 5 -4 13 -10 16 -5
3 -10 2 -10 -4z"/>
<path d="M7560 5066 c0 -7 8 -31 17 -52 12 -29 18 -34 21 -21 4 18 5 18 23 1
10 -9 19 -12 19 -6 0 6 -4 14 -10 17 -5 3 -10 15 -10 25 0 22 -26 50 -46 50
-8 0 -14 -6 -14 -14z m40 -22 c0 -8 -4 -12 -10 -9 -5 3 -10 10 -10 16 0 5 5 9
10 9 6 0 10 -7 10 -16z"/>
<path d="M7634 5058 c4 -13 9 -35 12 -50 5 -21 12 -28 31 -28 31 0 38 21 19
58 -23 44 -73 60 -62 20z m46 -17 c12 -24 13 -51 2 -51 -9 0 -32 44 -32 60 0
17 19 11 30 -9z"/>
<path d="M7720 5045 c0 -44 13 -74 24 -56 5 8 13 8 27 0 19 -10 20 -9 5 18 -8
15 -24 39 -35 53 l-21 25 0 -40z"/>
<path d="M7760 5076 c0 -5 11 -23 23 -40 13 -17 26 -38 29 -46 3 -8 6 10 6 40
1 50 -1 53 -14 36 -14 -20 -14 -20 -29 0 -8 10 -15 15 -15 10z"/>
<path d="M6760 5058 c0 -26 21 -88 32 -94 7 -5 9 0 5 15 -4 15 0 24 10 28 13
5 12 8 -5 14 -25 10 -29 29 -6 29 8 0 12 5 9 10 -9 14 -45 12 -45 -2z"/>
<path d="M6831 5053 c0 -10 9 -36 19 -58 16 -34 19 -36 19 -16 l1 24 25 -23
c14 -13 25 -18 25 -12 0 6 -4 14 -10 17 -5 3 -10 16 -10 29 0 26 -28 56 -53
56 -10 0 -17 -8 -16 -17z m46 -29 c-9 -9 -28 6 -21 18 4 6 10 6 17 -1 6 -6 8
-13 4 -17z"/>
<path d="M6940 5068 c0 -2 6 -23 14 -48 16 -54 39 -72 62 -48 30 30 -12 98
-60 98 -9 0 -16 -1 -16 -2z m60 -44 c10 -26 6 -44 -10 -44 -4 0 -13 14 -19 31
-14 40 -14 39 4 39 9 0 20 -12 25 -26z"/>
<path d="M7041 5033 c0 -36 17 -93 18 -64 1 10 9 12 31 8 l30 -6 -36 49 c-20
28 -38 50 -40 50 -2 0 -4 -17 -3 -37z"/>
<path d="M7089 5053 c6 -12 16 -25 22 -28 5 -4 14 -18 19 -31 5 -13 14 -24 20
-24 7 0 7 6 0 21 -6 11 -8 33 -5 50 4 18 3 29 -4 29 -6 0 -11 -7 -11 -15 0
-20 -9 -19 -33 3 -19 16 -20 16 -8 -5z"/>
<path d="M7280 5056 c0 -8 14 -25 31 -37 30 -21 31 -23 13 -36 -17 -12 -17
-13 3 -13 37 0 39 22 5 50 -25 20 -29 29 -20 38 9 9 7 12 -10 12 -12 0 -22 -6
-22 -14z"/>
<path d="M7370 5019 c0 -44 2 -50 15 -39 8 7 22 10 30 6 8 -3 15 -3 15 0 0 6
-52 84 -56 84 -2 0 -4 -23 -4 -51z"/>
<path d="M7416 5060 c12 -5 25 -25 33 -50 7 -23 15 -39 18 -36 3 3 0 19 -6 37
-15 42 -14 49 5 49 8 0 22 -17 31 -37 16 -40 29 -53 52 -53 10 0 12 10 7 43
-4 23 -12 47 -18 52 -10 10 -9 5 8 -56 5 -16 2 -20 -13 -17 -11 2 -21 17 -27
41 -9 37 -10 37 -60 36 -38 0 -46 -2 -30 -9z"/>
<path d="M5683 5053 c-22 -8 -14 -31 19 -57 32 -25 32 -26 13 -40 -20 -15 -20
-15 3 -16 39 0 39 30 2 62 -31 25 -32 33 -7 29 12 -2 3 22 -9 25 -5 1 -15 0
-21 -3z"/>
<path d="M5740 5049 c0 -5 7 -32 16 -60 12 -35 21 -49 35 -49 28 0 39 30 24
67 -17 40 -75 73 -75 42z m60 -40 c12 -22 7 -49 -9 -49 -7 0 -31 51 -31 66 0
14 31 0 40 -17z"/>
<path d="M5935 5039 c-6 -19 -8 -20 -26 -3 -22 20 -26 8 -5 -15 8 -9 22 -30
30 -46 l16 -30 0 58 c0 60 -4 71 -15 36z"/>
<path d="M6000 5050 c0 -5 7 -10 15 -10 9 0 19 -17 26 -45 6 -25 16 -45 21
-45 6 0 7 10 3 23 -15 50 -17 67 -6 67 6 0 11 5 11 10 0 6 -16 10 -35 10 -19
0 -35 -4 -35 -10z"/>
<path d="M6086 5040 c10 -39 32 -90 39 -90 4 0 4 9 0 19 -12 37 25 35 38 -3
13 -35 19 -8 7 31 -14 44 -30 65 -30 40 0 -24 -25 -21 -44 6 l-17 22 7 -25z"/>
<path d="M6176 5033 c13 -55 33 -83 59 -83 30 0 33 22 10 77 -17 41 -31 40
-15 -1 14 -37 13 -56 -3 -56 -8 0 -20 18 -27 41 -16 47 -34 64 -24 22z"/>
<path d="M6263 5033 c3 -16 11 -41 18 -58 12 -30 12 -30 18 -6 6 21 8 22 20 7
7 -9 18 -16 24 -16 5 0 3 8 -6 18 -10 10 -17 26 -17 34 0 32 -13 48 -37 48
-22 0 -25 -3 -20 -27z m42 -3 c3 -5 -1 -10 -9 -10 -9 0 -16 5 -16 10 0 6 4 10
9 10 6 0 13 -4 16 -10z"/>
<path d="M6334 5048 c-4 -6 6 -23 24 -39 36 -32 39 -39 17 -39 -8 0 -15 -5
-15 -11 0 -14 42 -7 48 9 2 7 -11 26 -28 42 -18 17 -27 30 -21 30 6 0 11 5 11
10 0 14 -27 13 -36 -2z"/>
<path d="M6405 5028 c17 -74 25 -85 59 -72 39 15 3 104 -41 104 -23 0 -24 -3
-18 -32z m43 0 c14 -14 16 -58 4 -58 -9 0 -32 44 -32 60 0 14 14 12 28 -2z"/>
<path d="M6500 5013 c0 -29 5 -53 10 -53 6 0 10 5 10 10 0 6 7 10 15 10 8 0
15 -4 15 -10 0 -5 5 -10 11 -10 11 0 -9 38 -42 81 l-19 24 0 -52z"/>
<path d="M6540 5055 c0 -4 11 -20 25 -37 14 -16 25 -36 25 -44 0 -8 5 -14 11
-14 6 0 8 7 5 16 -3 9 -6 32 -6 52 -1 31 -2 34 -11 19 -10 -18 -12 -18 -30 -1
-10 9 -19 14 -19 9z"/>
<path d="M6911 5050 c0 -8 8 -33 18 -55 13 -27 20 -33 20 -20 0 11 -8 36 -19
55 -11 19 -19 28 -19 20z"/>
<path d="M4813 5043 c-24 -8 -14 -44 17 -61 34 -20 39 -42 9 -42 -11 0 -17 -4
-14 -10 8 -13 52 -13 60 0 11 18 -4 45 -36 62 -16 10 -27 22 -24 28 4 6 11 8
16 5 5 -4 9 -2 9 3 0 12 -21 20 -37 15z"/>
<path d="M4888 5045 c-7 -8 17 -104 30 -117 14 -14 60 2 67 22 7 21 -7 61 -27
77 -17 15 -62 26 -70 18z m62 -39 c14 -18 10 -58 -6 -63 -10 -3 -34 45 -34 68
0 14 27 10 40 -5z"/>
<path d="M5070 5043 c0 -6 11 -24 24 -40 13 -15 26 -38 30 -50 12 -39 21 -25
21 32 0 30 -2 55 -4 55 -2 0 -9 -7 -16 -16 -11 -15 -14 -15 -33 7 -12 12 -22
18 -22 12z"/>
<path d="M5320 5018 l-1 -33 -15 28 c-18 33 -34 35 -34 5 l0 -22 -16 22 c-8
12 -20 22 -25 22 -6 0 -1 -13 10 -29 12 -16 21 -33 21 -39 0 -5 7 -15 15 -22
13 -10 15 -9 15 9 0 27 7 27 31 -1 l18 -23 1 52 c0 28 -4 55 -10 58 -6 4 -10
-7 -10 -27z"/>
<path d="M5355 5023 c16 -66 33 -93 59 -93 15 0 26 5 26 10 0 6 -9 10 -20 10
-23 0 -41 31 -22 38 19 6 14 19 -10 27 l-23 8 23 4 c33 7 27 23 -9 23 -29 0
-31 -2 -24 -27z"/>
<path d="M5430 5037 c0 -30 33 -107 45 -107 17 0 45 27 45 43 0 7 -9 27 -20
45 -14 22 -27 32 -45 32 -14 0 -25 -6 -25 -13z m60 -33 c12 -32 -1 -62 -17
-42 -6 7 -14 25 -18 41 -10 36 21 38 35 1z"/>
<path d="M5570 5030 c0 -24 -13 -26 -30 -5 -23 28 -28 15 -12 -35 9 -27 19
-50 24 -50 4 0 3 11 -2 25 -12 32 -3 32 33 -2 20 -18 28 -22 24 -11 -3 9 -11
35 -17 57 -12 44 -20 53 -20 21z"/>
<path d="M5600 5042 c0 -5 7 -29 16 -55 14 -42 19 -47 46 -47 17 0 27 4 23 10
-3 6 -15 10 -26 10 -20 0 -27 30 -6 30 6 0 1 9 -13 20 -20 16 -22 20 -7 20 9
0 17 5 17 10 0 6 -11 10 -25 10 -14 0 -25 -4 -25 -8z"/>
<path d="M5845 5037 c-7 -18 -1 -85 9 -94 3 -4 6 -1 6 6 0 9 9 12 25 9 32 -7
31 -3 -5 51 -23 35 -31 41 -35 28z m30 -47 c3 -5 1 -10 -4 -10 -6 0 -11 5 -11
10 0 6 2 10 4 10 3 0 8 -4 11 -10z"/>
<path d="M4480 5031 c0 -5 10 -11 22 -13 17 -2 26 -14 36 -50 7 -27 18 -48 24
-48 6 0 8 9 4 23 -18 63 -19 77 -2 77 9 0 16 5 16 10 0 6 -22 10 -50 10 -27 0
-50 -4 -50 -9z"/>
<path d="M4604 5004 c11 -58 31 -84 66 -84 16 0 32 5 35 10 9 14 -24 110 -37
110 -6 0 -8 -6 -5 -14 3 -8 9 -31 13 -50 5 -28 3 -36 -9 -36 -20 0 -33 19 -42
57 -10 49 -29 55 -21 7z"/>
<path d="M4715 5004 c12 -66 25 -84 62 -84 18 0 33 5 33 10 0 6 -13 10 -30 10
-23 0 -30 4 -30 20 0 12 7 20 18 21 13 0 12 2 -5 9 -28 12 -30 30 -3 30 11 0
20 5 20 10 0 6 -16 10 -36 10 -36 0 -36 0 -29 -36z"/>
<path d="M5017 5034 c-11 -11 -8 -104 3 -104 6 0 10 5 10 10 0 6 9 10 19 10
11 0 23 -4 26 -10 14 -23 24 -8 11 18 -23 42 -60 84 -69 76z m33 -55 c0 -5 -4
-9 -10 -9 -5 0 -10 7 -10 16 0 8 5 12 10 9 6 -3 10 -10 10 -16z"/>
<path d="M3650 4973 c0 -34 5 -65 10 -68 6 -4 10 6 10 22 l1 28 24 -27 24 -27
9 27 9 27 13 -27 c12 -26 30 -38 30 -20 0 14 -49 110 -60 117 -6 4 -10 -10
-10 -37 l0 -43 -30 45 -30 45 0 -62z"/>
<path d="M3780 5010 c-9 -16 -7 -29 7 -58 33 -68 103 -67 103 2 0 62 -84 104
-110 56z m78 -25 c16 -35 15 -54 -3 -62 -23 -8 -55 26 -55 59 0 23 4 28 23 28
16 0 28 -9 35 -25z"/>
<path d="M3907 4978 c17 -61 21 -68 33 -68 5 0 5 13 0 30 -11 38 -4 38 37 -2
18 -17 35 -30 37 -27 7 7 -28 119 -37 119 -5 0 -6 -14 -2 -31 6 -28 5 -30 -12
-21 -10 6 -27 20 -37 31 -31 34 -36 25 -19 -31z"/>
<path d="M4025 4994 c12 -65 23 -84 49 -84 39 0 56 24 45 63 -11 39 -33 57
-72 57 -28 0 -29 -1 -22 -36z m71 -19 c7 -27 -1 -45 -20 -45 -12 0 -37 75 -28
84 10 11 42 -16 48 -39z"/>
<path d="M4156 4974 c-6 -52 1 -86 11 -56 6 15 37 16 64 2 10 -6 19 -8 19 -5
0 10 -73 115 -80 115 -4 0 -10 -25 -14 -56z m39 -4 c3 -5 1 -10 -4 -10 -6 0
-11 5 -11 10 0 6 2 10 4 10 3 0 8 -4 11 -10z"/>
<path d="M4229 5012 c5 -10 17 -24 25 -32 9 -7 16 -18 16 -24 0 -7 7 -21 15
-32 13 -18 14 -16 13 21 0 22 2 50 6 63 9 28 -9 29 -25 1 l-11 -21 -14 21
c-19 26 -39 29 -25 3z"/>
<path d="M2687 5013 c-18 -17 -4 -45 33 -68 44 -28 45 -45 2 -45 -18 0 -23 -3
-15 -11 6 -6 23 -9 39 -7 23 2 30 9 32 30 3 23 -3 31 -32 45 -39 18 -51 49
-16 40 13 -3 20 0 20 9 0 14 -50 20 -63 7z"/>
<path d="M2794 4973 c11 -73 73 -118 106 -78 10 13 11 27 1 70 -7 30 -17 55
-22 55 -11 0 -11 -14 0 -62 6 -26 5 -40 -3 -48 -20 -15 -42 9 -56 63 -7 26
-17 47 -22 47 -6 0 -8 -19 -4 -47z"/>
<path d="M2926 4993 c18 -80 26 -103 36 -103 6 0 8 13 6 30 -6 38 -1 37 40 -1
18 -17 36 -29 39 -26 9 10 -23 121 -36 125 -10 3 -11 -4 -6 -27 8 -39 -3 -39
-40 -1 -36 37 -47 38 -39 3z"/>
<path d="M3060 5005 c0 -7 5 -37 11 -65 10 -47 12 -50 43 -50 18 0 37 5 44 12
20 20 14 72 -11 96 -27 26 -87 31 -87 7z m77 -31 c12 -19 14 -30 7 -42 -23
-36 -36 -27 -58 46 -11 32 28 30 51 -4z"/>
<path d="M3206 4959 c-8 -66 -2 -84 18 -56 16 21 34 22 58 0 10 -9 21 -13 24
-10 9 9 -68 127 -82 127 -7 0 -14 -27 -18 -61z m40 -16 c-10 -10 -19 5 -10 18
6 11 8 11 12 0 2 -7 1 -15 -2 -18z"/>
<path d="M3280 5012 c0 -5 11 -19 25 -32 14 -13 29 -38 33 -54 11 -42 27 -35
27 12 0 20 4 47 8 60 6 16 5 22 -6 22 -8 0 -17 -10 -20 -22 l-6 -22 -24 22
c-24 23 -37 28 -37 14z"/>
<path d="M7705 4730 c-12 -19 13 -37 44 -32 26 4 31 0 37 -23 4 -18 2 -30 -6
-35 -16 -10 -4 -29 26 -40 31 -12 54 -58 34 -70 -7 -4 -24 -4 -37 1 -17 6 -23
5 -23 -4 0 -22 23 -37 55 -37 62 0 73 49 25 103 -17 20 -30 46 -30 62 0 37
-50 85 -89 85 -16 0 -33 -5 -36 -10z"/>
<path d="M7132 4709 c-24 -9 -30 -44 -9 -52 6 -2 20 2 29 10 12 11 21 12 36 4
26 -14 31 -44 19 -123 -14 -95 -11 -100 65 -92 35 4 64 8 66 9 1 1 0 10 -4 19
-4 11 -18 16 -46 16 l-40 0 7 64 c7 63 -7 114 -35 131 -24 15 -67 22 -88 14z"/>
<path d="M6488 4656 c-16 -20 -25 -41 -22 -50 7 -18 20 -21 29 -6 13 21 24 7
55 -72 36 -92 49 -111 68 -99 9 6 1 37 -37 132 -28 68 -54 125 -58 126 -4 2
-20 -12 -35 -31z"/>
<path d="M5240 4520 c-17 -5 7 -8 76 -9 88 -1 260 -28 362 -57 12 -3 22 -2 22
3 0 11 -93 38 -175 52 -88 14 -256 21 -285 11z"/>
<path d="M5216 4440 c-31 -38 -46 -88 -46 -161 0 -71 47 -169 103 -214 34 -26
47 -30 104 -30 59 0 67 3 89 28 30 35 31 77 3 134 -38 78 -119 123 -187 104
-17 -5 -34 -6 -37 -1 -8 12 15 72 41 107 l24 32 -22 15 c-32 22 -43 20 -72
-14z m151 -222 c67 -74 44 -151 -36 -118 -48 20 -79 98 -49 128 19 19 63 14
85 -10z"/>
<path d="M7972 4278 c-18 -18 -15 -47 12 -103 31 -68 71 -113 109 -123 69 -19
85 24 43 114 -45 96 -125 151 -164 112z m114 -93 c36 -65 43 -105 19 -105 -22
0 -51 32 -80 89 -33 66 -33 83 2 79 20 -2 33 -16 59 -63z"/>
<path d="M7836 4245 c-9 -13 -16 -31 -16 -39 0 -19 17 -30 25 -16 12 19 21 10
59 -65 39 -76 61 -103 73 -91 9 8 -104 236 -116 236 -5 0 -16 -11 -25 -25z"/>
<path d="M7332 4238 c-40 -40 22 -135 96 -147 32 -6 37 -10 34 -31 -2 -14 -8
-30 -13 -36 -11 -14 -1 -24 22 -24 69 0 34 183 -45 231 -35 22 -76 25 -94 7z
m98 -55 c23 -30 22 -46 -4 -51 -24 -5 -56 26 -56 55 0 32 33 30 60 -4z"/>
<path d="M6126 4195 c43 -37 110 -113 179 -200 15 -19 16 -19 4 5 -19 39 -122
161 -170 203 -62 53 -73 46 -13 -8z"/>
<path d="M6702 4188 c-20 -20 -13 -53 17 -82 24 -23 28 -34 24 -60 -4 -25 2
-38 29 -69 41 -47 91 -59 127 -30 32 26 22 65 -25 109 -20 17 -35 38 -34 45 4
27 0 38 -26 68 -20 24 -34 31 -63 31 -20 0 -42 -5 -49 -12z m88 -43 c7 -8 9
-22 6 -31 -6 -15 -9 -15 -29 -1 -29 19 -35 47 -9 47 11 0 25 -7 32 -15z m53
-110 c44 -42 28 -77 -24 -51 -25 12 -35 37 -25 62 8 20 17 18 49 -11z"/>
<path d="M4311 4004 c-11 -15 -21 -31 -21 -35 0 -19 -3 -25 -32 -62 -38 -48
-28 -63 31 -47 56 15 76 46 67 107 -8 62 -19 70 -45 37z"/>
<path d="M3480 3870 c-38 -68 -60 -117 -56 -127 6 -14 18 -15 86 -10 l80 6 16
-39 c14 -34 21 -40 45 -40 33 0 32 -2 18 39 -8 24 -8 35 1 46 16 20 5 45 -19
45 -12 0 -22 9 -26 23 -22 78 -60 167 -70 167 -7 0 -41 -50 -75 -110z m76 -35
c21 -50 18 -55 -27 -55 -22 0 -39 3 -37 8 20 41 42 82 45 82 2 0 11 -16 19
-35z"/>
<path d="M8242 3843 c-44 -3 -53 -7 -50 -21 2 -13 16 -18 54 -20 l50 -3 13
-71 c19 -100 30 -130 50 -126 18 4 18 1 -14 143 -15 67 -27 100 -36 101 -8 0
-38 -1 -67 -3z"/>
<path d="M8081 3790 c-17 -39 -8 -68 15 -49 18 14 11 22 75 -83 28 -46 48 -68
60 -68 18 0 18 2 5 28 -33 60 -123 196 -132 199 -5 2 -15 -11 -23 -27z"/>
<path d="M7662 3778 c-21 -21 -14 -105 12 -146 40 -62 71 -85 117 -86 58 -1
72 22 43 72 -29 50 -67 76 -109 76 -29 0 -35 4 -35 21 0 11 4 27 10 35 5 9 5
19 -2 27 -13 16 -21 16 -36 1z m114 -143 c26 -26 29 -55 7 -62 -18 -6 -63 42
-63 67 0 28 25 25 56 -5z"/>
<path d="M7481 3735 c-26 -45 -15 -85 16 -54 9 9 20 -2 46 -42 19 -30 42 -69
51 -86 10 -21 24 -33 36 -33 11 0 20 3 20 6 0 8 -140 244 -145 244 -2 0 -12
-16 -24 -35z"/>
<path d="M6993 3713 c-24 -2 -43 -6 -43 -9 0 -9 52 -97 68 -116 13 -16 16 -16
38 -1 22 14 26 14 49 -1 28 -19 49 -61 41 -83 -4 -10 -16 -12 -42 -7 -29 5
-36 4 -32 -7 8 -25 57 -42 92 -32 25 7 32 15 34 39 6 60 -85 151 -139 139 -19
-4 -28 -1 -33 10 -9 25 1 35 35 35 24 0 30 4 27 18 -3 18 -24 22 -95 15z"/>
<path d="M6821 3664 c-32 -53 -26 -83 11 -61 13 8 22 8 24 2 3 -5 25 -45 50
-87 32 -56 50 -78 64 -78 11 0 20 2 20 5 0 7 -141 255 -145 255 -2 0 -12 -16
-24 -36z"/>
<path d="M5602 3680 c-18 -4 -42 -16 -53 -26 l-21 -19 27 -23 c25 -21 29 -22
44 -8 26 24 74 20 99 -7 30 -32 28 -65 -3 -77 -14 -5 -25 -13 -25 -17 1 -20
29 -41 64 -47 68 -13 111 -83 71 -116 -14 -11 -54 -11 -105 1 -10 3 -16 -5
-18 -23 -3 -24 1 -28 40 -39 64 -17 138 -5 166 26 12 14 22 36 22 47 0 35 -46
103 -84 123 -33 18 -35 21 -30 60 12 89 -92 168 -194 145z"/>
<path d="M6444 3654 c8 -32 22 -51 32 -41 9 9 -10 60 -26 65 -10 4 -11 -2 -6
-24z"/>
<path d="M5313 3613 c-9 -16 -28 -40 -42 -55 -21 -24 -23 -31 -13 -53 13 -28
34 -32 52 -10 7 8 18 15 24 14 6 0 40 -61 76 -135 64 -134 65 -136 94 -130 16
4 31 8 33 9 8 8 -182 387 -194 387 -7 0 -20 -12 -30 -27z"/>
<path d="M4493 3539 c-31 -9 -63 -42 -63 -65 0 -6 12 -16 27 -23 25 -11 29
-10 42 8 10 15 24 21 51 21 70 0 81 -46 50 -205 -13 -64 -20 -119 -16 -122 6
-7 234 15 248 23 4 3 2 16 -4 30 -12 25 -13 26 -86 19 l-74 -7 8 54 c5 29 9
83 9 120 0 57 -4 70 -25 93 -46 50 -111 70 -167 54z"/>
<path d="M4240 3491 c0 -5 -16 -30 -36 -56 -34 -45 -35 -48 -19 -72 l17 -25
24 23 c13 12 26 20 29 17 3 -3 32 -60 65 -127 33 -67 66 -124 73 -127 7 -2 23
-1 35 3 20 8 17 16 -68 191 -57 116 -95 182 -105 182 -8 0 -15 -4 -15 -9z"/>
<path d="M8556 3388 c-9 -34 -7 -131 3 -147 6 -10 20 -11 51 -6 38 6 45 4 75
-25 22 -21 35 -28 40 -20 4 6 0 19 -9 29 -9 10 -16 22 -15 27 4 22 -2 34 -16
34 -8 0 -36 28 -61 63 -25 34 -49 63 -54 65 -4 2 -10 -7 -14 -20z m68 -110
c-13 -21 -34 -6 -34 25 l0 32 19 -25 c11 -13 17 -28 15 -32z"/>
<path d="M3753 3346 c-31 -32 -40 -49 -36 -65 6 -25 20 -27 45 -4 11 10 22 13
27 7 4 -5 27 -55 51 -111 42 -103 54 -116 88 -94 11 7 8 22 -16 77 -16 38 -44
106 -63 152 -18 45 -38 82 -43 82 -6 0 -30 -20 -53 -44z"/>
<path d="M8320 3375 c-7 -8 -10 -22 -6 -30 6 -17 32 -20 41 -5 9 15 41 12 55
-5 7 -8 18 -52 24 -97 l12 -83 63 2 c71 2 74 3 65 27 -5 13 -16 16 -47 14
l-41 -3 -11 60 c-13 70 -38 110 -79 125 -40 14 -61 13 -76 -5z"/>
<path d="M3454 3312 c-35 -40 -40 -50 -31 -69 l10 -22 29 20 28 21 24 -54 c12
-29 33 -79 46 -110 20 -50 27 -58 50 -58 15 0 29 2 32 5 10 10 -117 310 -132
312 -8 1 -33 -19 -56 -45z"/>
<path d="M7884 3319 c-3 -6 0 -18 9 -26 11 -12 19 -12 35 -4 17 9 26 7 49 -14
22 -20 25 -26 14 -34 -19 -12 -6 -41 18 -41 31 0 76 -43 68 -65 -6 -13 -14
-16 -37 -11 -22 4 -30 2 -30 -9 0 -31 95 -33 114 -3 14 23 -9 65 -51 92 -18
12 -33 29 -33 40 0 10 -15 33 -34 52 -27 27 -42 34 -74 34 -23 0 -44 -5 -48
-11z"/>
<path d="M7705 3294 c-9 -9 -14 -21 -12 -28 5 -14 47 -21 47 -7 0 18 45 13 63
-6 10 -12 18 -48 23 -107 l7 -89 70 7 c39 4 73 8 75 11 3 2 2 12 -2 21 -5 13
-15 16 -50 11 -50 -7 -56 -1 -56 66 0 54 -17 86 -59 114 -40 27 -83 30 -106 7z"/>
<path d="M7234 3225 c-13 -32 24 -63 41 -35 11 18 53 11 69 -12 11 -16 16 -47
16 -106 0 -98 3 -101 93 -84 69 13 74 16 57 36 -9 11 -23 14 -55 9 l-43 -5 -4
72 c-4 68 -6 74 -41 106 -30 28 -44 34 -82 34 -31 0 -47 -5 -51 -15z"/>
<path d="M7053 3209 c-26 -10 -31 -47 -8 -56 9 -3 24 2 34 11 24 22 36 20 60
-10 18 -23 21 -41 21 -115 l0 -89 28 1 c36 0 121 15 127 21 3 3 3 13 -1 22 -5
13 -15 15 -55 10 l-49 -7 0 57 c0 96 -33 146 -105 159 -16 3 -40 1 -52 -4z"/>
<path d="M6580 3140 c0 -6 -10 -24 -22 -41 -20 -27 -21 -30 -5 -46 14 -14 18
-14 33 -2 15 12 18 12 28 -4 84 -136 107 -167 126 -167 28 0 26 9 -22 84 -24
36 -60 92 -80 126 -34 55 -58 76 -58 50z"/>
<path d="M1970 3059 c0 -38 -3 -50 -10 -39 -7 11 -10 6 -10 -20 0 -19 -7 -48
-15 -64 -8 -15 -15 -36 -15 -45 0 -9 -9 -34 -20 -56 -11 -22 -20 -53 -20 -71
0 -38 -19 -94 -31 -94 -5 0 -9 -5 -9 -11 0 -5 -13 -24 -29 -41 -21 -22 -29
-41 -29 -68 0 -20 -11 -57 -23 -81 -29 -57 -82 -143 -91 -147 -4 -2 -12 -20
-19 -40 -6 -20 -20 -45 -30 -56 -11 -11 -19 -30 -19 -43 0 -12 -9 -28 -20 -35
-11 -7 -20 -20 -20 -28 0 -8 -9 -21 -20 -28 -11 -7 -20 -17 -20 -23 0 -7 -15
-26 -34 -44 -34 -32 -35 -32 -13 -44 24 -13 174 2 397 39 63 10 144 22 180 26
36 4 70 10 76 15 10 8 -12 202 -35 309 -5 25 -13 72 -16 105 -3 33 -13 94 -21
135 -7 41 -21 122 -30 180 -8 58 -20 130 -25 160 -5 30 -12 78 -15 105 -8 68
-14 70 -14 4z"/>
<path d="M1932 2985 c0 -16 2 -22 5 -12 2 9 2 23 0 30 -3 6 -5 -1 -5 -18z"/>
<path d="M8840 2964 c-11 -31 -10 -38 5 -53 13 -12 19 -13 22 -3 8 21 17 14
82 -63 55 -66 91 -92 91 -67 0 9 -178 222 -185 222 -2 0 -9 -16 -15 -36z"/>
<path d="M8630 2955 c-18 -22 2 -35 44 -28 37 6 78 -29 58 -49 -15 -15 3 -38
28 -38 23 0 70 -38 70 -56 0 -9 -11 -14 -30 -14 -32 0 -42 -23 -14 -34 47 -18
94 -2 94 31 0 26 -60 93 -84 93 -6 0 -16 14 -21 32 -18 58 -114 100 -145 63z"/>
<path d="M5962 2939 c-43 -9 -61 -34 -62 -86 0 -53 11 -81 61 -157 70 -105
156 -156 236 -141 24 4 40 17 59 45 25 38 26 40 11 91 -20 67 -87 165 -141
207 -47 35 -113 52 -164 41z m129 -85 c36 -34 109 -174 109 -208 0 -36 -31
-50 -73 -33 -78 33 -182 220 -146 263 19 23 75 12 110 -22z"/>
<path d="M5609 2913 c-32 -5 -74 -47 -66 -66 3 -8 18 -17 32 -21 21 -5 32 -2
47 13 24 26 58 27 90 1 36 -28 40 -65 17 -181 -11 -57 -17 -109 -14 -117 4
-11 27 -12 128 -7 67 4 126 11 130 15 5 4 4 18 -3 30 -10 19 -19 21 -83 20
-40 -1 -75 -1 -78 -1 -3 1 0 37 7 81 14 88 7 130 -26 173 -33 42 -117 70 -181
60z"/>
<path d="M6501 2891 c-32 -9 -37 -27 -13 -40 13 -7 31 -7 58 0 47 13 46 12 38
33 -6 17 -39 20 -83 7z"/>
<path d="M8218 2889 c-40 -23 -11 -95 71 -177 44 -43 86 -64 123 -60 44 4 54
26 33 72 -26 55 -104 136 -150 157 -46 21 -54 22 -77 8z m87 -47 c33 -27 105
-122 105 -138 0 -21 -43 -17 -72 5 -35 28 -101 127 -94 140 10 16 38 13 61 -7z"/>
<path d="M8015 2857 c-16 -13 -17 -17 -6 -31 15 -18 41 -22 41 -6 0 17 26 11
54 -11 21 -17 24 -24 15 -35 -17 -20 -3 -44 25 -44 35 0 81 -42 73 -65 -6 -13
-14 -16 -38 -11 -25 5 -30 3 -27 -11 4 -24 56 -37 91 -24 46 18 32 76 -26 111
-18 11 -41 36 -52 56 -35 66 -109 101 -150 71z"/>
<path d="M4860 2832 c-38 -6 -60 -31 -60 -69 0 -87 88 -163 190 -163 59 0 65
-15 25 -74 l-24 -36 30 -15 c29 -16 31 -15 59 15 110 118 -52 370 -220 342z
m102 -72 c14 -10 31 -34 38 -51 12 -28 12 -33 -6 -46 -20 -15 -58 -10 -82 10
-23 19 -43 67 -37 87 8 26 54 26 87 0z"/>
<path d="M3958 2794 c-43 -23 -39 -72 8 -113 19 -17 32 -36 29 -42 -4 -6 -7
-26 -7 -46 0 -69 81 -121 168 -108 51 7 84 34 84 68 0 34 -34 82 -69 97 -28
11 -31 16 -25 45 3 18 1 43 -6 54 -28 54 -123 77 -182 45z m110 -46 c7 -7 12
-22 12 -35 0 -31 -39 -31 -68 0 -17 18 -19 26 -10 35 15 15 51 15 66 0z m89
-149 c41 -34 -16 -86 -64 -59 -31 18 -43 47 -32 78 8 22 10 22 45 7 21 -8 43
-20 51 -26z"/>
<path d="M4583 2773 c-9 -16 -25 -38 -36 -50 -19 -21 -19 -23 -3 -49 l18 -26
24 23 c13 12 26 21 27 18 2 -2 34 -56 70 -119 59 -104 68 -115 96 -118 18 -2
31 1 31 8 0 22 -184 340 -197 340 -7 0 -20 -12 -30 -27z"/>
<path d="M7553 2773 c-7 -2 -13 -18 -13 -34 0 -60 101 -137 160 -122 25 7 37
-20 22 -52 -10 -21 -8 -26 9 -36 60 -31 66 75 9 154 -56 79 -129 114 -187 90z
m112 -58 c39 -38 32 -62 -15 -55 -23 3 -60 41 -60 62 0 27 46 23 75 -7z"/>
<path d="M3702 2722 c-37 -40 -41 -50 -33 -69 12 -27 24 -29 41 -8 7 8 18 15
24 15 7 0 35 -49 63 -108 50 -108 50 -109 82 -104 17 2 31 6 31 9 0 17 -147
313 -155 313 -5 0 -29 -22 -53 -48z"/>
<path d="M7353 2740 c-26 -11 -31 -45 -7 -54 8 -3 26 1 39 10 18 12 28 13 44
4 31 -16 39 -39 47 -126 4 -43 10 -84 15 -90 6 -8 30 -6 81 4 40 9 74 16 76
17 1 1 -1 10 -4 19 -5 14 -17 17 -57 14 l-51 -3 -11 66 c-13 79 -35 116 -80
135 -39 16 -60 17 -92 4z"/>
<path d="M6776 2648 c-27 -51 -54 -100 -61 -108 -20 -23 -28 -79 -15 -95 6 -8
14 -33 17 -57 2 -23 5 -44 7 -45 1 -1 31 3 67 9 l66 12 94 -49 c52 -26 108
-58 124 -70 17 -12 86 -50 155 -85 69 -34 131 -68 138 -74 11 -10 -4 -15 -73
-25 -47 -6 -96 -16 -108 -20 -12 -5 -49 -14 -82 -21 -33 -6 -78 -16 -100 -22
-22 -5 -56 -13 -75 -18 l-35 -8 40 -1 c22 0 69 7 105 17 36 10 101 24 145 31
44 7 87 15 95 19 8 3 39 11 69 17 l54 12 206 -105 c113 -58 249 -127 301 -154
52 -27 222 -115 378 -194 l282 -145 34 37 c61 67 134 240 110 264 -11 11 -161
92 -434 233 -294 152 -340 177 -340 190 0 4 -8 7 -18 7 -18 0 -577 278 -913
453 -91 48 -170 87 -175 87 -6 0 -32 -42 -58 -92z"/>
<path d="M6562 2578 c5 -15 48 -24 48 -10 0 10 -23 22 -42 22 -5 0 -8 -6 -6
-12z"/>
<path d="M1751 2494 c0 -11 3 -14 6 -6 3 7 2 16 -1 19 -3 4 -6 -2 -5 -13z"/>
<path d="M6197 2462 c-21 -23 -21 -64 -1 -153 16 -70 28 -82 62 -60 11 7 11
19 -2 67 -8 32 -18 83 -22 112 -7 57 -12 61 -37 34z"/>
<path d="M5968 2282 c-23 -13 -28 -24 -28 -54 0 -44 1 -45 103 -22 103 22 100
20 87 45 -10 18 -17 20 -53 13 -66 -11 -70 -10 -76 13 -6 21 -7 21 -33 5z"/>
<path d="M4272 2215 c-41 -7 -77 -16 -80 -20 -10 -10 71 -155 91 -161 9 -3 24
2 33 10 21 22 87 21 107 -2 25 -28 36 -66 25 -86 -8 -14 -20 -17 -61 -14 -49
3 -52 2 -52 -21 0 -31 40 -46 100 -37 96 15 120 74 65 158 -39 59 -86 82 -151
75 -41 -5 -50 -3 -59 13 -15 28 -15 28 50 41 59 11 71 24 48 47 -14 14 -21 14
-116 -3z"/>
<path d="M5247 2179 c-27 -16 -10 -29 36 -29 l42 1 -24 19 c-27 23 -29 23 -54
9z"/>
<path d="M3930 2152 c-43 -21 -53 -58 -18 -71 18 -7 28 -4 45 12 29 26 79 27
98 1 19 -26 18 -55 -5 -144 -25 -96 -26 -130 -2 -130 23 0 224 38 229 44 2 2
-2 14 -9 26 -11 18 -19 21 -55 16 -24 -3 -55 -9 -70 -12 -26 -7 -26 -7 -19 37
20 129 19 153 -5 183 -43 54 -124 71 -189 38z"/>
<path d="M5044 2074 c-3 -25 -2 -50 2 -54 6 -6 48 -1 103 10 52 11 98 20 103
20 16 0 8 30 -13 40 -18 10 -50 8 -101 -6 -11 -3 -18 0 -18 9 0 16 -21 27 -50
27 -15 0 -20 -10 -26 -46z"/>
<path d="M5415 2103 c-46 -7 -55 -23 -13 -23 44 0 70 9 62 21 -3 5 -8 8 -12 8
-4 -1 -20 -4 -37 -6z"/>
<path d="M2242 1950 c0 -19 2 -27 5 -17 2 9 2 25 0 35 -3 9 -5 1 -5 -18z"/>
<path d="M1418 1947 c-9 -18 -9 -18 19 -1 15 10 30 19 32 20 2 2 -7 2 -19 1
-12 -1 -26 -10 -32 -20z"/>
<path d="M6835 1960 l-20 -9 20 0 c11 0 27 4 35 9 13 9 13 10 0 9 -8 0 -24 -4
-35 -9z"/>
<path d="M1388 1927 c-3 -19 -2 -25 4 -19 6 6 8 18 6 28 -3 14 -5 12 -10 -9z"/>
<path d="M6788 1943 c7 -3 16 -2 19 1 4 3 -2 6 -13 5 -11 0 -14 -3 -6 -6z"/>
<path d="M6728 1933 c6 -2 18 -2 25 0 6 3 1 5 -13 5 -14 0 -19 -2 -12 -5z"/>
<path d="M6619 1916 c-20 -7 -72 -18 -115 -25 -44 -7 -106 -20 -139 -28 -33
-8 -93 -21 -135 -28 -41 -8 -106 -21 -145 -30 -38 -9 -95 -20 -125 -24 -30 -5
-75 -14 -99 -21 -24 -6 -74 -18 -110 -25 -36 -7 -120 -26 -186 -40 -119 -26
-214 -47 -370 -80 -44 -9 -88 -21 -97 -26 -10 -5 -28 -9 -40 -10 -13 0 -17 -3
-10 -6 7 -2 67 7 135 21 67 14 178 35 246 46 69 12 128 23 132 25 4 3 38 10
75 16 38 6 94 15 124 20 30 6 62 11 70 13 9 1 20 5 25 8 6 3 33 9 60 13 28 4
75 15 105 25 30 10 79 21 107 25 29 4 55 11 59 16 3 5 18 9 34 9 16 0 41 5 57
11 24 9 71 21 288 69 89 20 135 32 135 36 0 8 -46 3 -81 -10z"/>
<path d="M1347 1889 c7 -7 15 -10 18 -7 3 3 -2 9 -12 12 -14 6 -15 5 -6 -5z"/>
<path d="M2252 1870 c0 -14 2 -19 5 -12 2 6 2 18 0 25 -3 6 -5 1 -5 -13z"/>
<path d="M1560 1855 c5 -24 -1 -35 -21 -35 -16 0 -19 -4 -14 -20 4 -14 2 -20
-8 -20 -8 0 -17 -7 -21 -15 -3 -8 -10 -15 -15 -15 -6 0 -24 -13 -41 -30 -17
-16 -37 -30 -45 -30 -8 0 -15 -4 -15 -8 0 -5 -32 -26 -72 -46 -40 -20 -78 -42
-85 -47 -6 -6 -18 -12 -25 -13 -7 -2 -29 -10 -48 -19 -19 -8 -37 -14 -40 -12
-3 1 -18 -10 -35 -26 l-30 -29 60 0 c189 -1 337 -13 565 -44 66 -10 106 -20
112 -30 4 -6 10 -7 14 -3 9 9 -184 393 -214 426 -13 14 -23 21 -22 16z"/>
<path d="M7647 1789 c-32 -5 -94 -20 -139 -34 -155 -49 -139 -61 27 -20 107
26 223 65 190 63 -11 0 -46 -4 -78 -9z"/>
<path d="M6950 1625 c-47 -13 -87 -25 -90 -25 -3 -1 -9 -3 -15 -4 -51 -11 -76
-20 -81 -27 -3 -5 10 -6 28 -3 70 13 283 66 298 74 30 18 -53 9 -140 -15z"/>
<path d="M4985 1560 c-7 -12 2 -12 30 0 19 8 19 9 -2 9 -12 1 -25 -3 -28 -9z"/>
<path d="M4920 1550 c-21 -7 -21 -8 -5 -9 11 0 27 4 35 9 18 11 5 11 -30 0z"/>
<path d="M6648 1548 c-7 -7 -31 -13 -53 -13 -22 1 -49 -2 -60 -6 -11 -4 -49
-12 -85 -18 -36 -7 -159 -35 -275 -62 -618 -148 -911 -227 -837 -229 40 0 189
32 527 115 143 35 287 69 320 75 83 17 375 93 510 133 l50 15 -42 1 c-23 1
-48 -5 -55 -11z"/>
<path d="M4300 1423 c-14 -3 -29 -9 -35 -15 -10 -10 31 -2 70 13 21 8 6 9 -35
2z"/>
<path d="M4158 1383 c7 -3 16 -2 19 1 4 3 -2 6 -13 5 -11 0 -14 -3 -6 -6z"/>
<path d="M5008 1158 c-13 -3 -51 -12 -85 -18 -36 -7 -60 -17 -57 -22 4 -6 -2
-7 -15 -3 -12 4 -27 3 -34 -2 -7 -5 -31 -15 -55 -23 -80 -25 -33 -22 87 6 66
15 117 32 114 37 -3 5 7 6 25 2 18 -3 33 -2 37 4 3 6 17 11 30 11 13 0 26 4
30 10 6 10 -40 9 -77 -2z"/>
<path d="M4678 1063 c7 -3 16 -2 19 1 4 3 -2 6 -13 5 -11 0 -14 -3 -6 -6z"/>
</g>
</svg>
